<svg width="8" height="16" viewBox="0 0 8 16" fill="none" xmlns="http://www.w3.org/2000/svg">
<path d="M2.66666 0.727251L1.33333 0.727251C0.596954 0.727251 -6.38096e-07 1.37847 -6.02982e-07 2.18178L-6.25488e-08 14.5455C-2.86734e-05 15.3488 0.596925 16 1.3333 16L6.66667 16C7.40305 16 8 15.3488 8 14.5455L8 2.18182C8 1.3785 7.40304 0.727281 6.66667 0.727281L5.33334 0.727281C5.33334 0.325624 5.03485 -2.2008e-07 4.66666 -2.03986e-07L3.33333 -1.45705e-07C2.96512 -3.25545e-05 2.66666 0.325594 2.66666 0.727251ZM3.33331 1.4545L6.66667 1.4545C7.03486 1.4545 7.33335 1.78013 7.33335 2.18178L7.33335 14.5455C7.33335 14.9471 7.03486 15.2727 6.66667 15.2727L1.3333 15.2727C0.965113 15.2727 0.666621 14.9471 0.666621 14.5455L0.666621 2.18182C0.666621 1.78016 0.965112 1.45453 1.3333 1.45453L3.33331 1.45453L3.33331 1.4545Z" fill="white"/>
<path d="M1.33319 7.99993L1.33319 14.5454L6.66656 14.5454L6.66656 7.99993L1.33319 7.99993Z" fill="white"/>
</svg>
