<svg width="12" height="15" viewBox="0 0 12 15" fill="none" xmlns="http://www.w3.org/2000/svg">
<path d="M9.74513 3.97875L10.7141 3.00983L11.6569 3.95264L10.6879 4.92156C11.509 5.94801 12 7.25002 12 8.66669C12 11.9804 9.31373 14.6667 6 14.6667C2.68629 14.6667 0 11.9804 0 8.66669C0 5.35298 2.68629 2.66669 6 2.66669C7.41667 2.66669 8.71867 3.15767 9.74513 3.97875ZM6 13.3334C8.57733 13.3334 10.6667 11.244 10.6667 8.66669C10.6667 6.08936 8.57733 4.00002 6 4.00002C3.42267 4.00002 1.33333 6.08936 1.33333 8.66669C1.33333 11.244 3.42267 13.3334 6 13.3334ZM5.33333 5.33335H6.66667V9.33335H5.33333V5.33335ZM3.33333 0.666687H8.66667V2.00002H3.33333V0.666687Z" fill="white"/>
</svg>
