<svg width="12" height="12" viewBox="0 0 12 12" fill="none" xmlns="http://www.w3.org/2000/svg">
<path d="M10 8.00002V6.66669H11.3333C11.5222 6.66669 11.6806 6.73058 11.8083 6.85835C11.9361 6.98613 12 7.14446 12 7.33335C12 7.52224 11.9361 7.68058 11.8083 7.80835C11.6806 7.93613 11.5222 8.00002 11.3333 8.00002H10ZM10 10.6667V9.33335H11.3333C11.5222 9.33335 11.6806 9.39724 11.8083 9.52502C11.9361 9.6528 12 9.81113 12 10C12 10.1889 11.9361 10.3472 11.8083 10.475C11.6806 10.6028 11.5222 10.6667 11.3333 10.6667H10ZM7.33333 11.3334C6.96667 11.3334 6.65278 11.2028 6.39167 10.9417C6.13056 10.6806 6 10.3667 6 10H4.66667V7.33335H6C6 6.96669 6.13056 6.6528 6.39167 6.39169C6.65278 6.13058 6.96667 6.00002 7.33333 6.00002H9.33333V11.3334H7.33333ZM2.66667 9.33335C1.93333 9.33335 1.30556 9.07224 0.783333 8.55002C0.261111 8.0278 0 7.40002 0 6.66669C0 5.93335 0.261111 5.30558 0.783333 4.78335C1.30556 4.26113 1.93333 4.00002 2.66667 4.00002H3.66667C3.94444 4.00002 4.18056 3.9028 4.375 3.70835C4.56944 3.51391 4.66667 3.2778 4.66667 3.00002C4.66667 2.72224 4.56944 2.48613 4.375 2.29169C4.18056 2.09724 3.94444 2.00002 3.66667 2.00002H1.33333C1.14444 2.00002 0.986111 1.93613 0.858333 1.80835C0.730556 1.68058 0.666667 1.52224 0.666667 1.33335C0.666667 1.14446 0.730556 0.986131 0.858333 0.858354C0.986111 0.730576 1.14444 0.666687 1.33333 0.666687H3.66667C4.31111 0.666687 4.86111 0.894465 5.31667 1.35002C5.77222 1.80558 6 2.35558 6 3.00002C6 3.64446 5.77222 4.19446 5.31667 4.65002C4.86111 5.10558 4.31111 5.33335 3.66667 5.33335H2.66667C2.3 5.33335 1.98611 5.46391 1.725 5.72502C1.46389 5.98613 1.33333 6.30002 1.33333 6.66669C1.33333 7.03335 1.46389 7.34724 1.725 7.60835C1.98611 7.86947 2.3 8.00002 2.66667 8.00002H4V9.33335H2.66667Z" fill="white"/>
</svg>
