<svg width="24" height="24" viewBox="0 0 24 24" fill="none" xmlns="http://www.w3.org/2000/svg">
<path d="M13.5 2.00003C13.5 2.44403 13.307 2.84303 13 3.11803V5.00003H18C18.7956 5.00003 19.5587 5.3161 20.1213 5.87871C20.6839 6.44132 21 7.20438 21 8.00003V18C21 18.7957 20.6839 19.5587 20.1213 20.1214C19.5587 20.684 18.7956 21 18 21H6C5.20435 21 4.44129 20.684 3.87868 20.1214C3.31607 19.5587 3 18.7957 3 18V8.00003C3 7.20438 3.31607 6.44132 3.87868 5.87871C4.44129 5.3161 5.20435 5.00003 6 5.00003H11V3.11803C10.8135 2.95123 10.6717 2.74042 10.5875 2.5048C10.5033 2.26918 10.4794 2.01625 10.5179 1.76902C10.5564 1.52179 10.6562 1.28813 10.8081 1.08931C10.96 0.890493 11.1592 0.732833 11.3876 0.630687C11.6161 0.528541 11.8664 0.485156 12.1159 0.504481C12.3653 0.523806 12.606 0.605228 12.8159 0.741333C13.0259 0.877437 13.1985 1.0639 13.3179 1.28374C13.4374 1.50359 13.5 1.74982 13.5 2.00003ZM6 7.00003C5.73478 7.00003 5.48043 7.10539 5.29289 7.29293C5.10536 7.48046 5 7.73482 5 8.00003V18C5 18.2653 5.10536 18.5196 5.29289 18.7071C5.48043 18.8947 5.73478 19 6 19H18C18.2652 19 18.5196 18.8947 18.7071 18.7071C18.8946 18.5196 19 18.2653 19 18V8.00003C19 7.73482 18.8946 7.48046 18.7071 7.29293C18.5196 7.10539 18.2652 7.00003 18 7.00003H11H6ZM2 10H0V16H2V10ZM22 10H24V16H22V10ZM9 14.5C9.39782 14.5 9.77936 14.342 10.0607 14.0607C10.342 13.7794 10.5 13.3979 10.5 13C10.5 12.6022 10.342 12.2207 10.0607 11.9394C9.77936 11.6581 9.39782 11.5 9 11.5C8.60218 11.5 8.22064 11.6581 7.93934 11.9394C7.65804 12.2207 7.5 12.6022 7.5 13C7.5 13.3979 7.65804 13.7794 7.93934 14.0607C8.22064 14.342 8.60218 14.5 9 14.5ZM15 14.5C15.3978 14.5 15.7794 14.342 16.0607 14.0607C16.342 13.7794 16.5 13.3979 16.5 13C16.5 12.6022 16.342 12.2207 16.0607 11.9394C15.7794 11.6581 15.3978 11.5 15 11.5C14.6022 11.5 14.2206 11.6581 13.9393 11.9394C13.658 12.2207 13.5 12.6022 13.5 13C13.5 13.3979 13.658 13.7794 13.9393 14.0607C14.2206 14.342 14.6022 14.5 15 14.5Z" fill="black"/>
</svg>
